<svg width="809" height="293" viewBox="0 0 809 293" fill="none" xmlns="http://www.w3.org/2000/svg">
<g clip-path="url(#clip0_859_36)">
<path d="M207.583 289.177H195.083L174.942 261.256C170.019 265.726 164.772 269.872 159.269 273.695C153.763 277.581 148 280.951 141.91 283.735C135.823 286.587 129.604 288.852 123.258 290.473C116.846 292.157 110.368 293 103.763 293C89.5142 293 76.0407 290.279 63.4758 284.903C50.8455 279.527 39.9014 272.077 30.4443 262.49C21.0527 252.965 13.6038 241.629 8.16316 228.544C2.72248 215.458 0.00213623 201.207 0.00213623 185.723C0.00213623 170.435 2.72248 156.184 8.16316 143.033C13.6038 129.882 21.0527 118.48 30.4443 108.893C39.9014 99.2403 50.8455 91.7274 63.4758 86.2857C76.0407 80.8441 89.5142 78.1233 103.763 78.1233C108.36 78.1233 113.026 78.5107 117.945 79.2885C122.802 80.0008 127.531 81.2971 132.131 82.9809C136.794 84.6646 141.132 86.9325 145.149 89.7188C149.228 92.5052 152.598 95.9383 155.384 99.9554V5.05419H207.586V289.179L207.583 289.177ZM155.381 185.723C155.381 178.663 154.019 171.797 151.299 165.124C148.578 158.517 144.887 152.62 140.224 147.503C135.561 142.386 130.054 138.238 123.773 135.195C117.555 132.087 110.884 130.531 103.76 130.531C96.7011 130.531 90.0298 131.762 83.746 134.289C77.5276 136.816 72.0869 140.508 67.4239 145.238C62.8264 149.967 59.1974 155.731 56.5425 162.597C53.8877 169.401 52.5261 177.173 52.5261 185.723C52.5261 193.235 53.8877 200.298 56.5425 206.971C59.1974 213.709 62.8264 219.603 67.4239 224.655C72.0869 229.706 77.5276 233.723 83.746 236.575C90.027 239.489 96.7011 240.98 103.76 240.98C110.884 240.98 117.555 239.424 123.773 236.316C130.057 233.207 135.561 229.125 140.224 224.008C144.887 218.891 148.578 212.996 151.299 206.324C154.019 199.717 155.381 192.851 155.381 185.723ZM408.088 185.723C408.088 200.945 405.367 215.068 399.927 228.153C394.486 241.239 387.103 252.575 377.711 262.099C368.385 271.686 357.373 279.202 344.808 284.706C332.243 290.214 318.707 292.997 304.262 292.997C290.013 292.997 276.54 290.211 263.975 284.706C251.345 279.199 240.401 271.686 230.944 262.099C221.552 252.578 214.103 241.242 208.662 228.153C203.222 215.068 200.501 200.945 200.501 185.723C200.501 170.304 203.222 155.99 208.662 142.839C214.103 129.688 221.552 118.352 230.944 108.765C240.401 99.2403 251.345 91.7274 263.975 86.2857C276.54 80.8441 290.013 78.1233 304.262 78.1233C318.704 78.1233 332.243 80.713 344.808 85.8327C357.373 90.9496 368.382 98.2061 377.711 107.665C387.103 117.058 394.486 128.394 399.927 141.611C405.367 154.825 408.088 169.532 408.088 185.725V185.723ZM355.886 185.723C355.886 177.366 354.524 169.851 351.804 163.05C349.083 156.312 345.392 150.483 340.729 145.625C336.066 140.702 330.559 137.01 324.278 134.42C318.06 131.827 311.389 130.534 304.265 130.534C297.206 130.534 290.535 131.83 284.251 134.42C278.033 137.01 272.592 140.702 267.929 145.625C263.331 150.483 259.702 156.315 257.047 163.05C254.393 169.853 253.031 177.366 253.031 185.723C253.031 193.56 254.393 200.882 257.047 207.555C259.702 214.293 263.331 220.122 267.929 225.045C272.592 229.968 278.033 233.854 284.251 236.706C290.532 239.558 297.206 240.982 304.265 240.982C311.389 240.982 318.06 239.621 324.278 236.965C330.562 234.31 336.066 230.618 340.729 225.76C345.392 220.965 349.083 215.136 351.804 208.335C354.524 201.469 355.886 193.953 355.886 185.728V185.723ZM482.232 239.424C484.24 240.074 486.248 240.527 488.319 240.655C490.328 240.848 492.336 240.98 494.341 240.98C499.394 240.98 504.317 240.267 508.98 238.905C513.643 237.481 518.047 235.472 522.128 232.883C526.273 230.29 529.965 227.116 533.138 223.424C536.377 219.666 539.032 215.521 541.04 210.985L578.994 249.139C574.2 255.943 568.631 262.097 562.412 267.538C556.128 272.98 549.329 277.578 542.074 281.402C534.819 285.159 527.176 288.074 519.146 290.017C511.116 291.96 502.824 292.997 494.338 292.997C480.09 292.997 466.616 290.342 454.052 285.028C441.421 279.718 430.412 272.268 421.02 262.809C411.563 253.285 404.18 242.014 398.739 228.928C393.298 215.843 390.578 201.461 390.578 185.72C390.578 169.654 393.298 155.013 398.739 141.734C404.18 128.454 411.563 117.118 421.02 107.725C430.412 98.397 441.421 91.0778 454.052 85.8926C466.616 80.7102 480.087 78.1204 494.338 78.1204C502.824 78.1204 511.113 79.1575 519.209 81.166C527.304 83.1746 535.012 86.0892 542.268 89.9126C549.523 93.6704 556.322 98.3343 562.669 103.839C569.015 109.346 574.587 115.5 579.378 122.366L482.226 239.424H482.232ZM508.786 132.602C506.39 131.696 503.992 131.178 501.662 130.919C499.329 130.659 496.871 130.531 494.344 130.531C487.285 130.531 480.614 131.827 474.33 134.417C468.112 137.007 462.671 140.699 458.008 145.494C453.411 150.286 449.782 156.118 447.127 162.853C444.472 169.657 443.11 177.235 443.11 185.72C443.11 187.663 443.241 189.802 443.435 192.198C443.629 194.594 443.888 197.056 444.344 199.518C444.797 201.979 445.315 204.31 445.962 206.643C446.608 208.911 447.451 210.919 448.423 212.666L508.789 132.6L508.786 132.602Z" fill="#2AB036"/>
<path d="M651.699 34.5274C651.699 39.3195 650.794 43.7896 648.979 48.0005C647.102 52.1458 644.641 55.7726 641.467 58.8838C638.294 61.9921 634.603 64.4536 630.327 66.2685C626.117 68.146 621.582 69.0548 616.791 69.0548C611.999 69.0548 607.465 68.1488 603.254 66.2685C598.979 64.4565 595.287 61.9921 592.245 58.8838C589.137 55.7726 586.676 52.1458 584.796 48.0005C582.984 43.7896 582.076 39.3195 582.076 34.5274C582.076 29.798 582.981 25.3934 584.796 21.117C586.673 16.9062 589.137 13.2138 592.245 10.1055C595.29 6.99723 598.982 4.53566 603.254 2.72083C607.465 0.905999 611.999 7.62939e-06 616.791 7.62939e-06C621.582 7.62939e-06 626.117 0.905999 630.327 2.72083C634.603 4.53281 638.294 6.99723 641.467 10.1055C644.641 13.2167 647.102 16.909 648.979 21.117C650.794 25.3934 651.699 29.798 651.699 34.5274ZM642.761 292.997H590.621V89.7188H642.761V292.997ZM769.748 292.997C757.249 292.997 745.459 290.601 734.449 285.872C723.44 281.142 713.789 274.601 705.497 266.307C697.207 258.017 690.73 248.364 685.936 237.415C681.207 226.404 678.874 214.615 678.874 202.11V141.736H653.614V90.1063H678.874V8.87189H730.495V90.1063H808.995V141.736H730.495V202.11C730.495 207.552 731.467 212.603 733.475 217.398C735.546 222.127 738.332 226.273 741.83 229.771C745.393 233.336 749.538 236.185 754.394 238.259C759.189 240.333 764.304 241.367 769.745 241.367H808.995V292.997H769.745H769.748Z" fill="#FF5800"/>
</g>
<defs>
<clipPath id="clip0_859_36">
<rect width="809" height="293" fill="white"/>
</clipPath>
</defs>
</svg>
