<svg xmlns="http://www.w3.org/2000/svg" width="24" height="24" fill="none"><path fill="#666" fill-rule="evenodd" d="M18.035 15.446c1-.824 1.811-1.693 2.367-2.346.399-.468.598-.703.598-1.059s-.2-.59-.598-1.058c-1.457-1.713-4.671-4.9-8.402-4.9-1.041 0-1.828.118-2.761.513l2.454 2.466c.169-.028.13 0 .307 0 1.7 0 3.079 1.334 3.079 2.98 0 .17.018.247-.01.41zM9.852 9.884c-.426.51-.93 1.449-.93 2.157 0 1.646 1.378 2.98 3.078 2.98.732 0 1.534-.309 2.148-.822l2.352 2.363C15.068 17.486 13.56 18 12 18c-3.731 0-6.945-3.188-8.403-4.9C3.2 12.632 3 12.397 3 12.04s.2-.59.597-1.058c.758-.89 2.164-2.435 3.903-3.462z" clip-rule="evenodd"/><path fill="#666" fill-rule="evenodd" d="M6.896 3.204a.723.723 0 0 1 1.016.008l12.882 12.961c.278.28.274.73-.009 1.006a.723.723 0 0 1-1.015-.008L6.888 4.211a.706.706 0 0 1 .008-1.007" clip-rule="evenodd"/></svg>