<svg width="335" height="290" viewBox="0 0 335 290" fill="none" xmlns="http://www.w3.org/2000/svg">
<path d="M173.014 131.95V127.95H172.943L172.872 127.953L173.014 131.95ZM144.319 174.649C143.037 172.85 140.54 172.43 138.74 173.712C136.941 174.993 136.521 177.491 137.803 179.29L144.319 174.649ZM233.303 140.902V136.902H232.92L232.543 136.975L233.303 140.902ZM278.682 170.96L275.19 172.911L278.682 170.96ZM102.672 208.106L98.6724 208.105L98.672 210.808L101.18 211.817L102.672 208.106ZM102.687 110.026L103.281 106.07L98.6877 105.38L98.687 110.025L102.687 110.026ZM92.5608 108.048L96.5547 107.827L96.5486 107.717L96.5365 107.607L92.5608 108.048ZM92.6283 109.268H96.6283V109.157L96.6222 109.047L92.6283 109.268ZM179.509 41.5521L182.406 38.7942L182.405 38.7923L179.509 41.5521ZM183.059 45.2814L180.162 48.0393L183.057 51.0806L185.954 48.0414L183.059 45.2814ZM186.614 41.5521L189.51 44.3121L189.51 44.312L186.614 41.5521ZM222.141 78.8218L225.036 81.5816L225.036 81.5816L222.141 78.8218ZM183.062 119.819L180.167 122.579L183.062 125.616L185.958 122.579L183.062 119.819ZM143.984 78.8218L146.879 76.0619L146.879 76.0619L143.984 78.8218ZM143.984 41.5521L146.879 44.312L146.879 44.312L143.984 41.5521ZM202.601 99.3202L199.706 96.5603V96.5604L202.601 99.3202ZM133.588 128.167C136.629 130.682 140.79 132.273 144.896 133.337C149.083 134.422 153.629 135.062 157.766 135.441C161.919 135.822 165.751 135.948 168.54 135.98C169.937 135.996 171.08 135.988 171.878 135.976C172.277 135.97 172.59 135.963 172.807 135.958C172.916 135.955 173 135.952 173.059 135.951C173.088 135.95 173.111 135.949 173.127 135.948C173.135 135.948 173.142 135.948 173.147 135.948C173.149 135.948 173.151 135.948 173.153 135.948C173.154 135.948 173.155 135.948 173.155 135.947C173.156 135.947 173.157 135.947 173.014 131.95C172.872 127.953 172.872 127.952 172.873 127.952C172.873 127.952 172.873 127.952 172.873 127.952C172.873 127.952 172.872 127.952 172.871 127.953C172.87 127.953 172.866 127.953 172.861 127.953C172.851 127.953 172.835 127.954 172.812 127.954C172.766 127.956 172.696 127.958 172.601 127.96C172.412 127.965 172.128 127.972 171.759 127.977C171.022 127.988 169.95 127.995 168.631 127.98C165.988 127.95 162.378 127.83 158.497 127.474C154.6 127.117 150.519 126.53 146.903 125.593C143.206 124.635 140.386 123.407 138.686 122.002L133.588 128.167ZM173.014 135.95C184.362 135.95 196.18 141.058 204.94 149.186C213.695 157.31 218.994 168.049 218.152 179.082L226.129 179.691C227.202 165.619 220.424 152.64 210.381 143.322C200.342 134.007 186.639 127.95 173.014 127.95V135.95ZM218.152 179.082C217.999 181.093 217.184 182.535 215.769 183.705C214.238 184.971 211.866 186.017 208.575 186.701C201.971 188.074 192.928 187.743 183.395 186.348C173.941 184.964 164.37 182.589 156.883 180.13C153.135 178.899 149.982 177.67 147.663 176.568C146.5 176.015 145.613 175.525 144.989 175.117C144.285 174.657 144.201 174.483 144.319 174.649L137.803 179.29C138.565 180.361 139.663 181.193 140.611 181.813C141.638 182.485 142.871 183.148 144.229 183.793C146.95 185.087 150.441 186.434 154.386 187.73C162.285 190.325 172.303 192.809 182.236 194.263C192.089 195.706 202.23 196.192 210.203 194.534C214.2 193.703 217.964 192.271 220.868 189.87C223.887 187.372 225.804 183.956 226.129 179.691L218.152 179.082ZM208.073 149.861L234.064 144.829L232.543 136.975L206.552 142.007L208.073 149.861ZM233.303 144.902C251.452 144.902 265.315 155.243 275.19 172.911L282.174 169.008C271.35 149.642 255.192 136.902 233.303 136.902V144.902ZM275.19 172.911C277.727 177.45 278.602 181.333 278.411 184.66C278.222 187.968 276.96 191.063 274.651 194.018C269.907 200.09 260.947 205.294 249.252 209.478C226.021 217.79 194.456 221.233 173.014 221.233V229.233C195 229.233 227.557 225.737 251.947 217.011C264.063 212.676 274.788 206.836 280.955 198.944C284.101 194.918 286.101 190.301 286.398 185.118C286.694 179.954 285.281 174.568 282.174 169.008L275.19 172.911ZM173.014 221.233C159.77 221.233 142.665 217.108 128.599 212.842C121.625 210.726 115.503 208.609 111.125 207.021C108.938 206.228 107.189 205.568 105.992 205.108C105.393 204.878 104.932 204.697 104.622 204.576C104.468 204.515 104.351 204.469 104.274 204.438C104.236 204.423 104.207 204.411 104.189 204.404C104.18 204.4 104.173 204.398 104.169 204.396C104.167 204.395 104.166 204.395 104.165 204.394C104.165 204.394 104.165 204.394 104.164 204.394C104.164 204.394 104.165 204.394 102.672 208.106C101.18 211.817 101.181 211.817 101.181 211.817C101.182 211.817 101.183 211.818 101.184 211.818C101.186 211.819 101.188 211.82 101.191 211.821C101.197 211.824 101.206 211.827 101.218 211.832C101.241 211.841 101.274 211.854 101.317 211.871C101.403 211.905 101.529 211.955 101.693 212.02C102.021 212.149 102.502 212.337 103.122 212.575C104.362 213.052 106.158 213.73 108.398 214.542C112.874 216.166 119.135 218.331 126.277 220.497C140.446 224.795 158.512 229.233 173.014 229.233V221.233ZM106.672 208.106L106.687 110.026L98.687 110.025L98.6724 208.105L106.672 208.106ZM102.093 113.981C113.855 115.749 124.639 120.766 133.588 128.167L138.686 122.002C128.671 113.719 116.55 108.064 103.281 106.07L102.093 113.981ZM82.5801 102.736C85.5215 102.736 88.2094 105.095 88.5851 108.488L96.5365 107.607C95.7512 100.515 89.945 94.7355 82.5801 94.7355V102.736ZM88.5669 108.269L88.6344 109.489L96.6222 109.047L96.5547 107.827L88.5669 108.269ZM88.6283 109.268V204.15H96.6283V109.268H88.6283ZM88.6283 204.15C88.6283 207.946 85.7421 210.692 82.5801 210.692V218.692C90.5172 218.692 96.6283 211.999 96.6283 204.15H88.6283ZM82.5801 210.692H62.4837V218.692H82.5801V210.692ZM62.4837 210.692C59.3219 210.692 56.4355 207.946 56.4355 204.15H48.4355C48.4355 211.999 54.5468 218.692 62.4837 218.692V210.692ZM56.4355 204.15V109.277H48.4355V204.15H56.4355ZM56.4355 109.277C56.4355 105.481 59.322 102.736 62.4837 102.736V94.7355C54.5467 94.7355 48.4355 101.429 48.4355 109.277H56.4355ZM62.4837 102.736H82.5801V94.7355H62.4837V102.736ZM176.612 44.3101L180.162 48.0393L185.956 42.5234L182.406 38.7942L176.612 44.3101ZM185.954 48.0414L189.51 44.3121L183.719 38.7921L180.164 42.5214L185.954 48.0414ZM189.51 44.312C197.744 35.6738 211.011 35.6738 219.245 44.312L225.036 38.7923C213.65 26.847 195.105 26.847 183.719 38.7923L189.51 44.312ZM219.245 44.312C227.583 53.0586 227.583 67.3153 219.245 76.0619L225.036 81.5816C236.319 69.7447 236.319 50.6291 225.036 38.7923L219.245 44.312ZM185.958 117.059L146.879 76.0619L141.088 81.5816L180.167 122.579L185.958 117.059ZM146.879 76.0619C138.542 67.3153 138.542 53.0586 146.879 44.312L141.089 38.7922C129.805 50.6291 129.805 69.7448 141.089 81.5817L146.879 76.0619ZM146.879 44.312C155.113 35.6738 168.38 35.6738 176.614 44.312L182.405 38.7923C171.018 26.847 152.475 26.847 141.088 38.7923L146.879 44.312ZM219.245 76.0619L199.706 96.5603L205.497 102.08L225.036 81.5816L219.245 76.0619ZM199.706 96.5604L180.167 117.059L185.958 122.579L205.497 102.08L199.706 96.5604Z" fill="white"/>
</svg>
