<svg width="347" height="347" viewBox="0 0 347 347" fill="none" xmlns="http://www.w3.org/2000/svg">
<path d="M303.625 140.969V119.281C303.625 107.777 299.055 96.7449 290.921 88.6105C282.786 80.4761 271.754 75.9063 260.25 75.9062C248.746 75.9063 237.714 80.4761 229.579 88.6105C221.445 96.7449 216.875 107.777 216.875 119.281V140.969M238.562 140.969H281.938V119.281C281.938 113.529 279.653 108.013 275.585 103.946C271.518 99.8787 266.002 97.5938 260.25 97.5938C254.498 97.5938 248.982 99.8787 244.915 103.946C240.847 108.013 238.562 113.529 238.562 119.281V140.969Z" stroke="white" stroke-width="8"/>
<path d="M227.719 271.094H54.2188C45.5909 271.094 37.3165 267.666 31.2157 261.566C25.1149 255.465 21.6875 247.19 21.6875 238.562V206.031C21.6875 197.403 25.1149 189.129 31.2157 183.028C37.3165 176.927 45.5909 173.5 54.2188 173.5H197" stroke="white" stroke-width="8"/>
<path d="M85.1236 207.658C84.6369 207.139 84.0489 206.726 83.3962 206.443C82.7434 206.161 82.0396 206.015 81.3283 206.015C80.617 206.015 79.9132 206.161 79.2605 206.443C78.6077 206.726 78.0198 207.139 77.533 207.658L70.4846 214.598L63.4361 207.658C62.4295 206.651 61.0643 206.086 59.6408 206.086C58.2173 206.086 56.8521 206.651 55.8455 207.658C54.8389 208.664 54.2734 210.03 54.2734 211.453C54.2734 212.877 54.8389 214.242 55.8455 215.249L62.7855 222.297L55.8455 229.345C54.8389 230.352 54.2734 231.717 54.2734 233.141C54.2734 234.564 54.8389 235.929 55.8455 236.936C56.8521 237.943 58.2173 238.508 59.6408 238.508C61.0643 238.508 62.4295 237.943 63.4361 236.936L70.4846 229.996L77.533 236.936C78.0314 237.434 78.6231 237.83 79.2743 238.1C79.9255 238.369 80.6235 238.508 81.3283 238.508C82.0332 238.508 82.7311 238.369 83.3823 238.1C84.0335 237.83 84.6252 237.434 85.1236 236.936C85.622 236.438 86.0174 235.846 86.2871 235.195C86.5569 234.544 86.6957 233.846 86.6957 233.141C86.6957 232.436 86.5569 231.738 86.2871 231.087C86.0174 230.436 85.622 229.844 85.1236 229.345L78.1836 222.297L85.1236 215.249C85.6423 214.762 86.0557 214.174 86.3383 213.521C86.6209 212.868 86.7667 212.165 86.7667 211.453C86.7667 210.742 86.6209 210.038 86.3383 209.385C86.0557 208.733 85.6423 208.145 85.1236 207.658Z" stroke="white" stroke-width="8"/>
<path d="M128.499 207.658C128.012 207.139 127.424 206.726 126.771 206.443C126.118 206.161 125.415 206.015 124.703 206.015C123.992 206.015 123.288 206.161 122.635 206.443C121.983 206.726 121.395 207.139 120.908 207.658L113.86 214.598L106.811 207.658C106.313 207.16 105.721 206.764 105.07 206.494C104.419 206.225 103.721 206.086 103.016 206.086C102.311 206.086 101.613 206.225 100.962 206.494C100.311 206.764 99.7189 207.16 99.2205 207.658C98.7221 208.156 98.3267 208.748 98.057 209.399C97.7873 210.05 97.6484 210.748 97.6484 211.453C97.6484 212.158 97.7873 212.856 98.057 213.507C98.3267 214.158 98.7221 214.75 99.2205 215.249L106.161 222.297L99.2205 229.345C98.2139 230.352 97.6484 231.717 97.6484 233.141C97.6484 234.564 98.2139 235.929 99.2205 236.936C100.227 237.943 101.592 238.508 103.016 238.508C104.439 238.508 105.805 237.943 106.811 236.936L113.86 229.996L120.908 236.936C121.406 237.434 121.998 237.83 122.649 238.1C123.301 238.369 123.998 238.508 124.703 238.508C125.408 238.508 126.106 238.369 126.757 238.1C127.409 237.83 128 237.434 128.499 236.936C128.997 236.438 129.392 235.846 129.662 235.195C129.932 234.544 130.071 233.846 130.071 233.141C130.071 232.436 129.932 231.738 129.662 231.087C129.392 230.436 128.997 229.844 128.499 229.345L121.559 222.297L128.499 215.249C129.017 214.762 129.431 214.174 129.713 213.521C129.996 212.868 130.142 212.165 130.142 211.453C130.142 210.742 129.996 210.038 129.713 209.385C129.431 208.733 129.017 208.145 128.499 207.658Z" stroke="white" stroke-width="8"/>
<path d="M164.934 222.297L171.874 215.248C172.88 214.242 173.446 212.877 173.446 211.453C173.446 210.03 172.88 208.664 171.874 207.658C170.867 206.651 169.502 206.086 168.078 206.086C166.655 206.086 165.29 206.651 164.283 207.658L157.235 214.598L150.186 207.658C149.18 206.651 147.814 206.086 146.391 206.086C144.967 206.086 143.602 206.651 142.596 207.658C141.589 208.664 141.023 210.03 141.023 211.453C141.023 212.877 141.589 214.242 142.596 215.248L149.536 222.297L142.596 229.345C141.589 230.352 141.023 231.717 141.023 233.141C141.023 234.564 141.589 235.929 142.596 236.936C143.602 237.942 144.967 238.508 146.391 238.508C147.814 238.508 149.18 237.942 150.186 236.936L157.235 229.996L164.283 236.936C164.781 237.434 165.373 237.83 166.024 238.099C166.676 238.369 167.373 238.508 168.078 238.508C168.783 238.508 169.481 238.369 170.132 238.099C170.784 237.83 171.375 237.434 171.874 236.936C172.372 236.437 172.767 235.846 173.037 235.195C173.307 234.543 173.446 233.845 173.446 233.141C173.446 232.436 173.307 231.738 173.037 231.087C172.767 230.435 172.372 229.844 171.874 229.345L164.934 222.297Z" stroke="white" stroke-width="8"/>
<path d="M292.781 140.969H227.719C209.752 140.969 195.188 155.533 195.188 173.5V238.562C195.188 256.529 209.752 271.094 227.719 271.094H292.781C310.748 271.094 325.312 256.529 325.312 238.562V173.5C325.312 155.533 310.748 140.969 292.781 140.969Z" stroke="white" stroke-width="8"/>
<path d="M281.938 195.188C281.961 191.375 280.978 187.624 279.089 184.312C277.2 181.001 274.472 178.245 271.179 176.324C267.886 174.403 264.145 173.384 260.332 173.37C256.52 173.355 252.771 174.346 249.463 176.243C246.156 178.139 243.407 180.873 241.493 184.171C239.579 187.468 238.569 191.212 238.563 195.024C238.557 198.837 239.557 202.583 241.46 205.886C243.364 209.19 246.105 211.933 249.406 213.839V227.719C249.406 230.595 250.549 233.353 252.582 235.387C254.616 237.42 257.374 238.563 260.25 238.563C263.126 238.563 265.884 237.42 267.918 235.387C269.951 233.353 271.094 230.595 271.094 227.719V213.839C274.372 211.946 277.097 209.229 279 205.957C280.902 202.685 281.915 198.972 281.938 195.188Z" stroke="white" stroke-width="8"/>
</svg>
